<svg width="21" height="21" viewBox="0 0 21 21" fill="none" xmlns="http://www.w3.org/2000/svg">
<path d="M4.35661 8.83337C3.43994 8.83337 2.68994 9.58337 2.68994 10.5C2.68994 11.4167 3.43994 12.1667 4.35661 12.1667C5.27327 12.1667 6.02327 11.4167 6.02327 10.5C6.02327 9.58337 5.27327 8.83337 4.35661 8.83337Z" stroke="#C0C0D6" stroke-width="1.5"/>
<path d="M16.0234 8.83337C15.1067 8.83337 14.3567 9.58337 14.3567 10.5C14.3567 11.4167 15.1067 12.1667 16.0234 12.1667C16.94 12.1667 17.69 11.4167 17.69 10.5C17.69 9.58337 16.94 8.83337 16.0234 8.83337Z" stroke="#C0C0D6" stroke-width="1.5"/>
<path d="M10.1899 8.83337C9.27319 8.83337 8.52319 9.58337 8.52319 10.5C8.52319 11.4167 9.27319 12.1667 10.1899 12.1667C11.1065 12.1667 11.8565 11.4167 11.8565 10.5C11.8565 9.58337 11.1065 8.83337 10.1899 8.83337Z" stroke="#C0C0D6" stroke-width="1.5"/>
</svg>
